<svg xmlns="http://www.w3.org/2000/svg" viewBox="0 0 551.74 551.74"><defs><style>.cls-1{fill:#fff;}</style></defs><title>logo iwan svg</title><g id="Layer_2" data-name="Layer 2"><g id="Layer_1-2" data-name="Layer 1"><path class="cls-1" d="M546.68,223A276,276,0,0,0,275.88,0C123.76,0,0,123.76,0,275.87A275.54,275.54,0,0,0,275.87,551.74H493.38a58.36,58.36,0,0,0,58.36-58.36V275.87A277.75,277.75,0,0,0,546.68,223ZM275.9,544.6A268.94,268.94,0,1,1,544.6,275.87C544.6,424.29,424.33,544.58,275.9,544.6Z"/><rect class="cls-1" x="117.92" y="250.14" width="41.45" height="41.45" rx="20.73"/><rect class="cls-1" x="255.15" y="250.14" width="41.45" height="41.45" rx="20.73"/><rect class="cls-1" x="392.37" y="250.14" width="41.45" height="41.45" rx="20.73"/><path class="cls-1" d="M442.64,442.64a156.55,156.55,0,0,1-31.09,31.57,186,186,0,0,1-81.11,35.72,155.19,155.19,0,0,1-44.28,1.57c14.45-3,28.52-6.19,42.26-10.28a338.33,338.33,0,0,0,40.17-14.64,331.07,331.07,0,0,0,37.93-19.7C418.83,459.51,430.67,451.27,442.64,442.64Z"/><path class="cls-1" d="M40.24,286.05A195,195,0,0,1,41,237c.66-4.06,1.22-8.14,2-12.17s1.72-8.05,2.75-12l1.69-5.94c.6-2,1.07-4,1.79-5.91l2-5.84c.69-1.94,1.28-3.92,2.1-5.82l2.37-5.7c.81-1.9,1.53-3.83,2.46-5.67l2.67-5.57c.91-1.85,1.71-3.75,2.77-5.52l3-5.4c1-1.78,2-3.62,3.09-5.34,2.21-3.47,4.33-7,6.71-10.35A194.65,194.65,0,0,1,109.1,109.1a308.73,308.73,0,0,0-28.88,39.08c-1.13,1.67-2,3.48-3.06,5.21l-3,5.22c-1.06,1.72-1.91,3.55-2.85,5.33l-2.77,5.36c-1.84,3.58-3.43,7.28-5.16,10.91-.9,1.81-1.57,3.7-2.35,5.56l-2.26,5.59c-.82,1.84-1.41,3.77-2.11,5.65l-2,5.69c-1.32,3.8-2.33,7.69-3.57,11.52s-2,7.79-3.08,11.69c-.53,1.94-.82,3.94-1.27,5.9l-1.27,5.92A303.76,303.76,0,0,0,40.24,286.05Z"/></g></g></svg>